<svg width="51" height="28" viewBox="0 0 51 28" fill="none" xmlns="http://www.w3.org/2000/svg">
<path d="M49.6932 18.6712L48.5758 20.0917H47.9238L48.1074 15.1744C48.1228 14.7251 48.0527 14.2771 47.9011 13.8565L44.4519 4.18925C44.2191 3.54347 43.8044 2.98703 43.2626 2.59366C42.7209 2.2003 42.0778 1.98862 41.4185 1.98665H35.5055L34.4325 0.726007C34.238 0.4975 33.9996 0.31469 33.7329 0.189573C33.4661 0.0644549 33.1771 -0.000211612 32.8848 6.71949e-07H29.934C29.5016 -0.000355967 29.0799 0.141261 28.7283 0.404779C28.3767 0.668298 28.1128 1.04053 27.9736 1.46921L27.8055 1.98665H0.583496V4.03914H41.4226C41.6822 4.03959 41.9355 4.12242 42.1492 4.27671C42.3629 4.43099 42.5268 4.64948 42.6195 4.90334L46.0687 14.5694C46.1284 14.7356 46.1554 14.9127 46.1481 15.0901L45.9356 20.8068C45.9235 21.1524 45.7837 21.4796 45.5455 21.7192C45.3074 21.9589 44.9896 22.0923 44.6593 22.0912H40.1484C39.8959 22.0915 39.6489 22.0134 39.4388 21.8667C39.2287 21.72 39.0649 21.5112 38.9681 21.267L38.1128 19.1065C37.8905 18.5416 37.5126 18.0589 37.0274 17.7197C36.5421 17.3806 35.9713 17.2003 35.3879 17.202H35.3786L8.87576 17.31C8.32538 17.3097 7.78604 17.4717 7.31948 17.7773C6.85291 18.083 6.47796 18.5201 6.23754 19.0384L5.81143 19.9426C5.70539 20.1663 5.54202 20.3546 5.33959 20.4866C5.13715 20.6186 4.90363 20.6891 4.66514 20.6901H0.583496V22.7426H4.66514C5.18723 22.7403 5.70114 22.6067 6.16366 22.3531C6.62617 22.0995 7.02375 21.7333 7.32296 21.2853C6.9827 22.5753 7.12086 23.9523 7.70972 25.1401C8.29858 26.3278 9.2946 27.2387 10.498 27.6897C11.7014 28.1408 13.0232 28.0987 14.1982 27.5721C15.3733 27.0455 16.3147 26.0731 16.8337 24.8502H14.5277C14.1093 25.3429 13.5577 25.6909 12.946 25.8478C12.3344 26.0048 11.6916 25.9633 11.103 25.7289C10.5144 25.4946 10.0077 25.0784 9.65019 24.5356C9.29268 23.9928 9.10123 23.349 9.10123 22.6897C9.10123 22.0303 9.29268 21.3865 9.65019 20.8437C10.0077 20.3009 10.5144 19.8848 11.103 19.6505C11.6916 19.4161 12.3344 19.3747 12.946 19.5316C13.5577 19.6885 14.1093 20.0364 14.5277 20.5291H16.8306C16.6465 20.0999 16.4089 19.6982 16.1239 19.3344L18.2648 19.3247C17.9761 19.6908 17.736 20.0959 17.5508 20.5291H19.8568C20.1478 20.1861 20.5049 19.9116 20.9046 19.7236C21.3043 19.5356 21.7375 19.4383 22.1757 19.4383C22.6139 19.4383 23.0471 19.5356 23.4468 19.7236C23.8465 19.9116 24.2036 20.1861 24.4945 20.5291H26.8016C26.6102 20.0834 26.3613 19.6673 26.0618 19.2923L28.2687 19.2825C27.9654 19.6597 27.7136 20.0793 27.5207 20.5291H29.8308C30.2493 20.036 30.8011 19.6878 31.413 19.5307C32.0249 19.3735 32.668 19.4149 33.2569 19.6492C33.8458 19.8836 34.3528 20.3 34.7105 20.843C35.0682 21.386 35.2597 22.03 35.2597 22.6897C35.2597 23.3493 35.0682 23.9934 34.7105 24.5364C34.3528 25.0794 33.8458 25.4957 33.2569 25.7301C32.668 25.9645 32.0249 26.0058 31.413 25.8487C30.8011 25.6915 30.2493 25.3433 29.8308 24.8502H27.5238C27.9965 25.9596 28.8187 26.8655 29.8528 27.4164C30.8869 27.9673 32.0703 28.13 33.2051 27.877C34.34 27.624 35.3575 26.9708 36.0876 26.0266C36.8177 25.0824 37.216 23.9045 37.2162 22.6897C37.2161 22.5002 37.2061 22.3109 37.1862 22.1225C37.4386 22.7241 37.8531 23.2356 38.3788 23.5944C38.9046 23.9532 39.5188 24.1437 40.1464 24.1426H44.6593C45.2885 24.1445 45.9045 23.9538 46.4315 23.5939C46.9585 23.2341 47.3736 22.7207 47.6256 22.1171H48.6512L49.6953 23.2914C49.7319 23.3323 49.7793 23.3607 49.8315 23.373C49.8837 23.3854 49.9382 23.381 49.988 23.3605C50.0378 23.34 50.0806 23.3044 50.1108 23.2582C50.141 23.2119 50.1573 23.1573 50.1575 23.1013L50.1668 18.8526C50.1676 18.7947 50.1511 18.7379 50.1197 18.6902C50.0883 18.6424 50.0435 18.6061 49.9915 18.5862C49.9395 18.5662 49.8828 18.5637 49.8294 18.5789C49.776 18.5941 49.7284 18.6264 49.6932 18.6712Z" fill="#D84E55"/>
<path d="M22.1793 25.9382C21.7409 25.9386 21.3074 25.8414 20.9075 25.6531C20.5077 25.4648 20.1506 25.1897 19.8599 24.8461H17.5529C17.9509 25.7824 18.5997 26.5779 19.4206 27.1361C20.2415 27.6944 21.1994 27.9915 22.1783 27.9915C23.1571 27.9915 24.115 27.6944 24.9359 27.1361C25.7569 26.5779 26.4056 25.7824 26.8037 24.8461H24.4977C24.2071 25.1896 23.8502 25.4646 23.4505 25.6529C23.0509 25.8412 22.6176 25.9384 22.1793 25.9382Z" fill="#D84E55"/>
<path d="M33.1324 22.6855C33.1324 22.4133 33.0292 22.1524 32.8454 21.9599C32.6615 21.7675 32.4122 21.6593 32.1523 21.6593H12.2083C11.9484 21.6593 11.6991 21.7675 11.5152 21.9599C11.3314 22.1524 11.2282 22.4133 11.2282 22.6855C11.2282 22.9577 11.3314 23.2187 11.5152 23.4112C11.6991 23.6037 11.9484 23.7118 12.2083 23.7118H32.1492C32.2782 23.7122 32.4059 23.686 32.5252 23.6346C32.6445 23.5833 32.7529 23.5077 32.8443 23.4124C32.9356 23.317 33.0081 23.2037 33.0575 23.079C33.107 22.9543 33.1324 22.8206 33.1324 22.6855Z" fill="#D84E55"/>
<path d="M0.583496 14.4828V8.77427H2.40643V10.4384L2.1345 9.96442C2.29565 9.5361 2.55751 9.21662 2.92008 9.00598C3.28265 8.78831 3.72244 8.67948 4.23944 8.67948V10.4805C4.15216 10.4665 4.07494 10.4594 4.0078 10.4594C3.94737 10.4524 3.88023 10.4489 3.80637 10.4489C3.41694 10.4489 3.10137 10.5612 2.85965 10.7859C2.61794 11.0036 2.49708 11.3617 2.49708 11.8602V14.4828H0.583496Z" fill="#D84E55"/>
<path d="M7.84024 14.5775C7.19566 14.5775 6.63166 14.4512 6.14823 14.1984C5.67151 13.9386 5.29886 13.5875 5.03029 13.1452C4.76843 12.6958 4.6375 12.1867 4.6375 11.618C4.6375 11.0492 4.76508 10.5437 5.02022 10.1013C5.28208 9.65196 5.6413 9.30439 6.09787 9.05864C6.55444 8.80587 7.06809 8.67948 7.63881 8.67948C8.17595 8.67948 8.6661 8.79533 9.10924 9.02704C9.55239 9.25173 9.90489 9.58525 10.1667 10.0276C10.4286 10.47 10.5595 11.0071 10.5595 11.639C10.5595 11.7093 10.5562 11.79 10.5495 11.8813C10.5427 11.9726 10.536 12.0568 10.5293 12.1341H6.20866V11.0808H9.5121L8.78695 11.3757C8.79367 11.1159 8.74667 10.8913 8.64596 10.7017C8.55195 10.5121 8.41767 10.3646 8.24309 10.2593C8.07524 10.154 7.87716 10.1013 7.64888 10.1013C7.42059 10.1013 7.21916 10.154 7.04459 10.2593C6.87673 10.3646 6.7458 10.5156 6.6518 10.7122C6.5578 10.9018 6.5108 11.1265 6.5108 11.3863V11.6917C6.5108 11.9726 6.56452 12.2148 6.67194 12.4184C6.78609 12.6221 6.94723 12.78 7.15538 12.8924C7.36352 12.9977 7.61195 13.0504 7.90067 13.0504C8.16924 13.0504 8.39753 13.0118 8.58553 12.9345C8.78024 12.8503 8.9716 12.7239 9.1596 12.5554L10.1667 13.6507C9.90489 13.9526 9.5826 14.1843 9.19989 14.3458C8.81717 14.5003 8.36395 14.5775 7.84024 14.5775Z" fill="#D84E55"/>
<path d="M13.8187 14.5775C13.3218 14.5775 12.8686 14.4582 12.459 14.2195C12.0562 13.9737 11.7339 13.6332 11.4922 13.1978C11.2505 12.7555 11.1296 12.2289 11.1296 11.618C11.1296 11.0141 11.2505 10.4945 11.4922 10.0592C11.7339 9.61685 12.0562 9.27631 12.459 9.03758C12.8686 8.79884 13.3218 8.67948 13.8187 8.67948C14.2887 8.67948 14.6848 8.7848 15.0071 8.99545C15.3361 9.20609 15.5846 9.52908 15.7524 9.96442C15.9203 10.3998 16.0042 10.9509 16.0042 11.618C16.0042 12.2991 15.9236 12.8573 15.7625 13.2926C15.6013 13.7279 15.3596 14.0509 15.0373 14.2616C14.715 14.4722 14.3088 14.5775 13.8187 14.5775ZM14.2215 12.9872C14.4364 12.9872 14.6278 12.9345 14.7956 12.8292C14.9702 12.7239 15.1078 12.5694 15.2085 12.3658C15.3093 12.1551 15.3596 11.9059 15.3596 11.618C15.3596 11.3301 15.3093 11.0879 15.2085 10.8913C15.1078 10.6876 14.9702 10.5332 14.7956 10.4278C14.6278 10.3225 14.4364 10.2699 14.2215 10.2699C14 10.2699 13.8019 10.3225 13.6273 10.4278C13.4595 10.5332 13.3252 10.6876 13.2245 10.8913C13.1238 11.0879 13.0734 11.3301 13.0734 11.618C13.0734 11.9059 13.1238 12.1551 13.2245 12.3658C13.3252 12.5694 13.4595 12.7239 13.6273 12.8292C13.8019 12.9345 14 12.9872 14.2215 12.9872ZM15.42 14.4828V13.5033L15.4301 11.618L15.3294 9.73271V6.66782H17.243V14.4828H15.42Z" fill="#D84E55"/>
<path d="M18.5648 14.4828V7.11017H21.7877C22.4322 7.11017 22.9862 7.219 23.4495 7.43667C23.9195 7.65434 24.282 7.97031 24.5372 8.38457C24.7923 8.79182 24.9199 9.27631 24.9199 9.83803C24.9199 10.3927 24.7923 10.8737 24.5372 11.2809C24.282 11.6812 23.9195 11.9901 23.4495 12.2078C22.9862 12.4184 22.4322 12.5238 21.7877 12.5238H19.6727L20.5589 11.6496V14.4828H18.5648ZM22.9257 14.4828L21.1733 11.797H23.2984L25.0609 14.4828H22.9257ZM20.5589 11.8708L19.6727 10.9123H21.6668C22.0831 10.9123 22.392 10.8175 22.5934 10.6279C22.8015 10.4384 22.9056 10.1751 22.9056 9.83803C22.9056 9.49397 22.8015 9.22716 22.5934 9.03758C22.392 8.848 22.0831 8.75321 21.6668 8.75321H19.6727L20.5589 7.79477V11.8708Z" fill="#D84E55"/>
<path d="M29.2139 14.4828V13.419L29.083 13.1557V11.1967C29.083 10.8807 28.989 10.6385 28.801 10.47C28.6197 10.2944 28.3276 10.2067 27.9247 10.2067C27.6629 10.2067 27.3977 10.2523 27.1291 10.3436C26.8605 10.4278 26.6322 10.5472 26.4442 10.7017L25.7997 9.34301C26.1085 9.13237 26.4778 8.97087 26.9075 8.85853C27.344 8.73916 27.777 8.67948 28.2067 8.67948C29.093 8.67948 29.7779 8.89364 30.2613 9.32195C30.7515 9.74324 30.9965 10.4068 30.9965 11.3125V14.4828H29.2139ZM27.6025 14.5775C27.166 14.5775 26.7967 14.5003 26.4946 14.3458C26.1924 14.1914 25.9608 13.9807 25.7997 13.7139C25.6452 13.4471 25.568 13.1487 25.568 12.8187C25.568 12.4676 25.6519 12.1657 25.8198 11.9129C25.9944 11.6531 26.2596 11.4565 26.6154 11.3231C26.9713 11.1826 27.4312 11.1124 27.9952 11.1124H29.2844V12.1551H28.2571C27.9482 12.1551 27.73 12.2078 27.6025 12.3131C27.4816 12.4184 27.4212 12.5589 27.4212 12.7344C27.4212 12.9099 27.485 13.0504 27.6125 13.1557C27.7401 13.261 27.9147 13.3137 28.1362 13.3137C28.3444 13.3137 28.5324 13.261 28.7002 13.1557C28.8748 13.0434 29.0024 12.8748 29.083 12.6501L29.3448 13.3874C29.2441 13.7806 29.046 14.079 28.7506 14.2826C28.4619 14.4792 28.0792 14.5775 27.6025 14.5775Z" fill="#D84E55"/>
<path d="M32.2044 14.4828V8.77427H34.118V14.4828H32.2044ZM33.1612 8.14233C32.8121 8.14233 32.5301 8.04052 32.3152 7.8369C32.1003 7.63327 31.9929 7.3805 31.9929 7.07857C31.9929 6.77665 32.1003 6.52387 32.3152 6.32025C32.5301 6.11663 32.8121 6.01481 33.1612 6.01481C33.5103 6.01481 33.7923 6.11312 34.0072 6.30972C34.2221 6.4993 34.3295 6.74505 34.3295 7.04698C34.3295 7.36295 34.2221 7.62625 34.0072 7.8369C33.7991 8.04052 33.5171 8.14233 33.1612 8.14233Z" fill="#D84E55"/>
<path d="M35.3616 14.4828V6.66782H37.2752V14.4828H35.3616Z" fill="#D84E55"/>
</svg>
