<svg width="50" height="29" viewBox="0 0 50 29" fill="none" xmlns="http://www.w3.org/2000/svg">
<path d="M31.0711 10.4658C31.663 10.7586 32.1816 11.1909 32.586 11.7286V5.70166H36.4188V22.1425H32.586V20.5928C32.2012 21.137 31.6944 21.5745 31.11 21.8669C30.4924 22.1616 29.8197 22.309 29.1406 22.2984C28.142 22.3199 27.1573 22.0508 26.2969 21.5213C25.4746 21 24.8129 20.2434 24.3903 19.3414C23.9233 18.3307 23.6912 17.2193 23.7129 16.0975C23.6905 14.9942 23.9189 13.9011 24.3795 12.9078C24.7954 12.0247 25.446 11.2852 26.2536 10.7776C27.1034 10.2637 28.0722 10.0035 29.0541 10.0253C29.7495 10.0125 30.4389 10.1631 31.0711 10.4658ZM30.0864 19.2058C30.4286 19.218 30.7691 19.1494 31.0823 19.005C31.3956 18.8607 31.6736 18.6444 31.8956 18.3722C32.373 17.7659 32.6188 16.9968 32.586 16.2127C32.586 15.3091 32.3559 14.5847 31.8956 14.0395C31.6718 13.7706 31.3931 13.5574 31.08 13.4155C30.767 13.2736 30.4275 13.2067 30.0864 13.2195C29.7427 13.2079 29.401 13.277 29.0864 13.4216C28.7717 13.5663 28.4922 13.7829 28.2685 14.0553C27.7856 14.6592 27.5356 15.4291 27.5673 16.2149C27.5356 17.0008 27.7856 17.7707 28.2685 18.3745C28.4928 18.6459 28.7726 18.8615 29.0871 19.0053C29.4017 19.1492 29.7431 19.2177 30.0864 19.2058Z" fill="#D84E55"/>
<path d="M48.049 11.7512C49.0705 12.9033 49.5812 14.4846 49.5812 16.4951C49.5812 16.8045 49.5812 17.0417 49.5596 17.2021H41.4613C41.6086 17.8214 41.9499 18.3715 42.4308 18.7653C42.9173 19.1358 43.5083 19.3266 44.1102 19.3075C44.61 19.3071 45.1046 19.2019 45.5645 18.998C46.042 18.7832 46.4766 18.4767 46.8457 18.0944L48.8476 20.1591C48.2442 20.8535 47.4965 21.3945 46.6618 21.7404C45.7397 22.1167 44.7561 22.3016 43.7661 22.2848C42.6324 22.3115 41.5093 22.0527 40.4917 21.5303C39.5898 21.0594 38.8436 20.3175 38.3492 19.4001C37.8392 18.4228 37.5832 17.3231 37.6069 16.2104C37.583 15.0798 37.8426 13.9624 38.36 12.9688C38.8511 12.0425 39.5925 11.2875 40.4917 10.7979C41.4774 10.2719 42.5728 10.0096 43.6795 10.0344C45.5739 10.0269 47.0304 10.5991 48.049 11.7512ZM42.1863 13.4116C41.7533 13.8698 41.4694 14.4585 41.3747 15.0945H45.8589C45.871 14.7894 45.8248 14.4849 45.723 14.1987C45.6212 13.9124 45.4658 13.6502 45.2659 13.4274C45.0613 13.2151 44.8169 13.0494 44.548 12.9405C44.2791 12.8317 43.9915 12.7821 43.7034 12.7949C43.4231 12.7885 43.1443 12.8399 42.8831 12.9462C42.625 13.0517 42.3895 13.2099 42.1906 13.4116H42.1863Z" fill="#D84E55"/>
<path d="M7.579 13.6103V9.99596C6.81676 9.98219 6.06398 10.1736 5.39319 10.5517C4.74623 10.9295 4.20699 11.4798 3.83065 12.1465V10.1518H0.00439453V22.1425H3.83715V16.0274C3.86908 15.6762 3.97157 15.336 4.13796 15.029C4.30498 14.7204 4.53294 14.4525 4.80669 14.2428C5.36794 13.8061 6.10015 13.5885 7.00333 13.59C7.19378 13.5877 7.38639 13.5945 7.579 13.6103Z" fill="#D84E55"/>
<path d="M22.9857 21.2886C21.6282 22.6661 19.9147 23.5996 18.0557 23.9745V15.1125L23.2498 6.98023C23.8317 7.61813 24.3321 8.33185 24.7387 9.10367C24.8686 9.00879 25.0006 8.91617 25.1391 8.83033C26.0859 8.24663 27.1467 7.89373 28.2425 7.79798C27.1331 5.458 25.4191 3.4883 23.2941 2.1112C21.169 0.734093 18.7175 0.00441245 16.2162 0.00451661C13.7132 0.00524061 11.2603 0.736746 9.13466 2.11636C7.00905 3.49597 5.29553 5.46868 4.18774 7.81154C5.28345 7.90759 6.34426 8.26047 7.29116 8.84389C7.4275 8.92973 7.56169 9.02235 7.69154 9.11722C8.09814 8.34541 8.5986 7.63168 9.18049 6.99379L14.3745 15.1261V23.9881C12.5158 23.6127 10.8024 22.6792 9.44451 21.3021C8.8677 22.1772 8.11978 22.9148 7.25004 23.4662C7.05098 23.591 6.84584 23.7049 6.63542 23.8073C7.88203 25.1406 9.37186 26.1997 11.017 26.9221C12.6621 27.6445 14.4293 28.0156 16.2141 28.0136C17.9992 28.0159 19.7667 27.645 21.4122 26.9225C23.0578 26.2001 24.548 25.1409 25.7948 23.8073C25.5784 23.7034 25.3793 23.5927 25.178 23.4662C24.3082 22.91 23.5611 22.1678 22.9857 21.2886ZM16.2162 11.0735L12.1779 4.75966C13.445 4.15431 14.8226 3.84221 16.2162 3.84477C17.6108 3.84338 18.9892 4.15702 20.2567 4.76418L16.2162 11.0893V11.0735Z" fill="#D84E55"/>
</svg>
